# xmcd
#
# Track frame offsets: 
#        150
#        25595
#        49975
#        79392
#        96042
#        114085
#        136737
#        165580
#        184785
#        214460
#        239117
#        273625
#        300440
#        315645
#
# Disc length: 4628 seconds
#
# Revision: 5
# Processed by: cddbd v1.5.2PL0 Copyright (c) Steve Scherf et al.
# Submitted via: ExactAudioCopy v1.3
#
DISCID=be12120e
DTITLE=Michael Jackson - Dangerous
DYEAR=1991
DGENRE=Pop
TTITLE0=Jam
TTITLE1=Why You Wanna Trip On Me
TTITLE2=In The Closet
TTITLE3=She Drives Me Wild
TTITLE4=Remember The Time
TTITLE5=Can't Let Her Get Away
TTITLE6=Heal The World
TTITLE7=Black Or White
TTITLE8=Who Is It
TTITLE9=Give In To Me
TTITLE10=Will You Be There
TTITLE11=Keep The Faith
TTITLE12=Gone Too Soon
TTITLE13=Dangerous
EXTD=YEAR: 1991
EXTT0=
EXTT1=
EXTT2=
EXTT3=
EXTT4=
EXTT5=
EXTT6=
EXTT7=
EXTT8=
EXTT9=
EXTT10=
EXTT11=
EXTT12=
EXTT13=
PLAYORDER=
